<svg width="32" height="32" viewBox="0 0 32 32" fill="none" xmlns="http://www.w3.org/2000/svg">
<path opacity="0.4" d="M15.9989 29.331C14.9736 29.331 13.9496 28.9417 13.1669 28.1643L12.1936 27.191C11.8162 26.815 11.3109 26.607 10.7749 26.6057H9.40552C7.19218 26.6057 5.39085 24.8043 5.39085 22.591V21.2203C5.38952 20.6857 5.18152 20.1803 4.80418 19.8003L3.84685 18.8443C2.27885 17.2857 2.27218 14.7377 3.83218 13.1683L4.80552 12.1937C5.18152 11.8163 5.38952 11.311 5.39085 10.775V9.40699C5.39085 7.19232 7.19218 5.39099 9.40552 5.39099H10.7762C11.3109 5.39099 11.8149 5.18299 12.1949 4.80299L13.1536 3.84699C14.7122 2.27899 17.2589 2.27099 18.8296 3.83232L19.8029 4.80565C20.1816 5.18299 20.6856 5.39099 21.2202 5.39099H22.5909C24.8042 5.39099 26.6056 7.19232 26.6056 9.40699V10.7763C26.6069 11.311 26.8149 11.8163 27.1922 12.1963L28.1496 13.1537C28.9082 13.9083 29.3282 14.9137 29.3322 15.987C29.3349 17.0537 28.9242 18.0577 28.1762 18.8163C28.1629 18.8297 28.1509 18.8443 28.1376 18.8563L27.1909 19.803C26.8149 20.1803 26.6069 20.6857 26.6056 21.2217V22.591C26.6056 24.8043 24.8042 26.6057 22.5909 26.6057H21.2202C20.6856 26.607 20.1802 26.815 19.8016 27.1923L18.8429 28.1497C18.0616 28.9363 17.0296 29.331 15.9989 29.331Z" fill="#393939"/>
<path fill-rule="evenodd" clip-rule="evenodd" d="M13.3903 13.4012C13.1703 13.6212 12.885 13.7399 12.569 13.7399C12.273 13.7399 11.9823 13.6186 11.749 13.3999C11.5276 13.1799 11.4023 12.8786 11.4023 12.5732C11.4023 12.2826 11.525 11.9839 11.741 11.7532C11.8596 11.6332 12.001 11.5426 12.1423 11.4946C12.545 11.3106 13.0796 11.4186 13.397 11.7519C13.5103 11.8652 13.597 11.9892 13.6543 12.1186C13.717 12.2572 13.749 12.4146 13.749 12.5732C13.749 12.8906 13.6223 13.1852 13.3903 13.4012ZM20.2539 11.7464C19.7992 11.2931 19.0592 11.2931 18.6046 11.7464L11.7512 18.5998C11.2966 19.0544 11.2966 19.7944 11.7512 20.2504C11.9726 20.4704 12.2646 20.5918 12.5766 20.5918C12.8886 20.5918 13.1806 20.4704 13.4006 20.2504L20.2539 13.3971C20.7086 12.9411 20.7086 12.2024 20.2539 11.7464ZM19.8743 18.3519C19.4423 18.1706 18.9303 18.2692 18.589 18.6106C18.5183 18.6932 18.4183 18.8212 18.3503 18.9719C18.2783 19.1346 18.269 19.3092 18.269 19.4266C18.269 19.5439 18.2783 19.7172 18.3503 19.8799C18.417 20.0292 18.497 20.1506 18.6023 20.2559C18.8436 20.4799 19.1236 20.5932 19.4356 20.5932C19.7316 20.5932 20.0223 20.4732 20.261 20.2506C20.473 20.0386 20.589 19.7452 20.589 19.4266C20.589 19.1066 20.473 18.8146 20.2596 18.6012C20.1423 18.4852 20.001 18.3946 19.8743 18.3519Z" fill="#DB00FF"/>
</svg>
