<svg width="273" height="73" viewBox="0 0 273 73" fill="none" xmlns="http://www.w3.org/2000/svg">
<path d="M36.0678 0C28.9343 -8.50666e-08 21.9609 2.11534 16.0296 6.07852C10.0983 10.0417 5.47541 15.6747 2.74552 22.2652C0.0156288 28.8558 -0.698635 36.1078 0.693047 43.1043C2.08473 50.1007 5.51986 56.5274 10.564 61.5716C15.6082 66.6157 22.0348 70.0509 29.0313 71.4426C36.0278 72.8342 43.2798 72.12 49.8703 69.3901C56.4609 66.6602 62.0939 62.0373 66.0571 56.106C70.0202 50.1747 72.1356 43.2013 72.1356 36.0678H54.1017C54.1017 39.6346 53.044 43.1212 51.0624 46.0869C49.0808 49.0526 46.2643 51.364 42.9691 52.7289C39.6738 54.0939 36.0478 54.451 32.5496 53.7552C29.0513 53.0593 25.838 51.3418 23.3159 48.8197C20.7938 46.2976 19.0763 43.0843 18.3804 39.586C17.6846 36.0878 18.0417 32.4618 19.4066 29.1665C20.7716 25.8713 23.083 23.0547 26.0487 21.0732C29.0144 19.0916 32.501 18.0339 36.0678 18.0339V0Z" fill="white"/>
<path d="M36.0678 0C31.3313 -5.64821e-08 26.6412 0.932921 22.2652 2.7455C17.8893 4.55807 13.9132 7.21481 10.564 10.564C7.21481 13.9132 4.55807 17.8893 2.7455 22.2653C0.93292 26.6412 -7.1519e-07 31.3313 0 36.0678H18.0339C18.0339 33.6996 18.5004 31.3545 19.4066 29.1665C20.3129 26.9785 21.6413 24.9905 23.3159 23.3159C24.9905 21.6413 26.9785 20.3129 29.1665 19.4066C31.3545 18.5004 33.6995 18.0339 36.0678 18.0339V0Z" fill="#CA5CE6"/>
<path d="M36.0678 47.339C42.2927 47.339 47.339 42.2927 47.339 36.0678C47.339 29.8429 42.2927 24.7966 36.0678 24.7966C29.8429 24.7966 24.7966 29.8429 24.7966 36.0678C24.7966 42.2927 29.8429 47.339 36.0678 47.339Z" fill="#D35CE6"/>
<path d="M47.339 36.0678C47.339 34.5877 47.0475 33.122 46.481 31.7545C45.9146 30.387 45.0844 29.1445 44.0377 28.0979C42.9911 27.0513 41.7486 26.221 40.3811 25.6546C39.0136 25.0882 37.548 24.7966 36.0678 24.7966C34.5876 24.7966 33.122 25.0882 31.7545 25.6546C30.387 26.221 29.1445 27.0513 28.0979 28.0979C27.0512 29.1445 26.221 30.387 25.6546 31.7545C25.0882 33.122 24.7966 34.5877 24.7966 36.0678H36.0678H47.339Z" fill="white"/>
<path d="M87.592 58.252C84.64 58.252 82.216 57.556 80.32 56.164C78.424 54.748 77.404 52.732 77.26 50.116H84.784C84.856 51.004 85.12 51.652 85.576 52.06C86.032 52.468 86.62 52.672 87.34 52.672C87.988 52.672 88.516 52.516 88.924 52.204C89.356 51.868 89.572 51.412 89.572 50.836C89.572 50.092 89.224 49.516 88.528 49.108C87.832 48.7 86.704 48.244 85.144 47.74C83.488 47.188 82.144 46.66 81.112 46.156C80.104 45.628 79.216 44.872 78.448 43.888C77.704 42.88 77.332 41.572 77.332 39.964C77.332 38.332 77.74 36.94 78.556 35.788C79.372 34.612 80.5 33.724 81.94 33.124C83.38 32.524 85.012 32.224 86.836 32.224C89.788 32.224 92.14 32.92 93.892 34.312C95.668 35.68 96.616 37.612 96.736 40.108H89.068C89.044 39.34 88.804 38.764 88.348 38.38C87.916 37.996 87.352 37.804 86.656 37.804C86.128 37.804 85.696 37.96 85.36 38.272C85.024 38.584 84.856 39.028 84.856 39.604C84.856 40.084 85.036 40.504 85.396 40.864C85.78 41.2 86.248 41.5 86.8 41.764C87.352 42.004 88.168 42.316 89.248 42.7C90.856 43.252 92.176 43.804 93.208 44.356C94.264 44.884 95.164 45.64 95.908 46.624C96.676 47.584 97.06 48.808 97.06 50.296C97.06 51.808 96.676 53.164 95.908 54.364C95.164 55.564 94.072 56.512 92.632 57.208C91.216 57.904 89.536 58.252 87.592 58.252ZM99.1882 47.884C99.1882 45.796 99.5602 43.972 100.304 42.412C101.072 40.852 102.104 39.652 103.4 38.812C104.72 37.972 106.184 37.552 107.792 37.552C109.184 37.552 110.384 37.828 111.392 38.38C112.4 38.932 113.18 39.676 113.732 40.612V37.804H120.788V58H113.732V55.192C113.18 56.128 112.388 56.872 111.356 57.424C110.348 57.976 109.16 58.252 107.792 58.252C106.184 58.252 104.72 57.832 103.4 56.992C102.104 56.152 101.072 54.952 100.304 53.392C99.5602 51.808 99.1882 49.972 99.1882 47.884ZM113.732 47.884C113.732 46.588 113.372 45.568 112.652 44.824C111.956 44.08 111.092 43.708 110.06 43.708C109.004 43.708 108.128 44.08 107.432 44.824C106.736 45.544 106.388 46.564 106.388 47.884C106.388 49.18 106.736 50.212 107.432 50.98C108.128 51.724 109.004 52.096 110.06 52.096C111.092 52.096 111.956 51.724 112.652 50.98C113.372 50.236 113.732 49.204 113.732 47.884ZM138.021 37.624C140.349 37.624 142.197 38.404 143.565 39.964C144.933 41.5 145.617 43.588 145.617 46.228V58H138.561V47.164C138.561 46.012 138.261 45.112 137.661 44.464C137.061 43.792 136.257 43.456 135.249 43.456C134.193 43.456 133.365 43.792 132.765 44.464C132.165 45.112 131.865 46.012 131.865 47.164V58H124.809V37.804H131.865V40.684C132.489 39.772 133.329 39.04 134.385 38.488C135.441 37.912 136.653 37.624 138.021 37.624ZM148.337 47.884C148.337 45.796 148.709 43.972 149.453 42.412C150.221 40.852 151.265 39.652 152.585 38.812C153.905 37.972 155.369 37.552 156.977 37.552C158.273 37.552 159.425 37.828 160.433 38.38C161.465 38.908 162.269 39.64 162.845 40.576V31.36H169.937V58H162.845V55.192C162.293 56.128 161.513 56.872 160.505 57.424C159.497 57.976 158.309 58.252 156.941 58.252C155.333 58.252 153.869 57.832 152.549 56.992C151.253 56.152 150.221 54.952 149.453 53.392C148.709 51.808 148.337 49.972 148.337 47.884ZM162.881 47.884C162.881 46.588 162.521 45.568 161.801 44.824C161.105 44.08 160.241 43.708 159.209 43.708C158.153 43.708 157.277 44.08 156.581 44.824C155.885 45.544 155.537 46.564 155.537 47.884C155.537 49.18 155.885 50.212 156.581 50.98C157.277 51.724 158.153 52.096 159.209 52.096C160.241 52.096 161.105 51.724 161.801 50.98C162.521 50.236 162.881 49.204 162.881 47.884Z" fill="#FBFCFE"/>
<path d="M194.216 45.968C195.704 46.304 196.88 47.048 197.744 48.2C198.632 49.328 199.076 50.624 199.076 52.088C199.076 54.248 198.332 55.94 196.844 57.164C195.356 58.388 193.268 59 190.58 59H178.016V33.62H190.184C192.776 33.62 194.804 34.196 196.268 35.348C197.756 36.5 198.5 38.12 198.5 40.208C198.5 41.696 198.104 42.944 197.312 43.952C196.544 44.936 195.512 45.608 194.216 45.968ZM185.072 43.7H188.636C190.412 43.7 191.3 42.968 191.3 41.504C191.3 39.992 190.412 39.236 188.636 39.236H185.072V43.7ZM189.176 53.312C190.952 53.312 191.84 52.568 191.84 51.08C191.84 50.312 191.6 49.724 191.12 49.316C190.664 48.908 190.004 48.704 189.14 48.704H185.072V53.312H189.176ZM211.564 59.252C209.548 59.252 207.736 58.832 206.128 57.992C204.544 57.152 203.296 55.952 202.384 54.392C201.472 52.832 201.016 50.996 201.016 48.884C201.016 46.796 201.472 44.972 202.384 43.412C203.32 41.852 204.58 40.652 206.164 39.812C207.772 38.972 209.584 38.552 211.6 38.552C213.616 38.552 215.416 38.972 217 39.812C218.608 40.652 219.868 41.852 220.78 43.412C221.716 44.972 222.184 46.796 222.184 48.884C222.184 50.972 221.716 52.808 220.78 54.392C219.868 55.952 218.608 57.152 217 57.992C215.392 58.832 213.58 59.252 211.564 59.252ZM211.564 53.132C212.548 53.132 213.364 52.772 214.012 52.052C214.684 51.308 215.02 50.252 215.02 48.884C215.02 47.516 214.684 46.472 214.012 45.752C213.364 45.032 212.56 44.672 211.6 44.672C210.64 44.672 209.836 45.032 209.188 45.752C208.54 46.472 208.216 47.516 208.216 48.884C208.216 50.276 208.528 51.332 209.152 52.052C209.776 52.772 210.58 53.132 211.564 53.132ZM237.655 59L234.019 53.924L231.139 59H223.399L230.131 48.524L223.111 38.804H231.031L234.667 43.88L237.583 38.804H245.323L238.447 49.1L245.575 59H237.655Z" fill="#C91AD8"/>
</svg>
