<svg width="33" height="32" viewBox="0 0 33 32" fill="none" xmlns="http://www.w3.org/2000/svg">
<path d="M31.4967 0.931172C30.6964 0.109757 29.5119 -0.196261 28.4075 0.125863L2.65294 7.61524C1.48766 7.93897 0.661726 8.8683 0.439235 10.0489C0.211942 11.2504 1.00586 12.7757 2.04309 13.4135L10.096 18.3629C10.9219 18.8702 11.9879 18.743 12.6714 18.0537L21.8928 8.77488C22.357 8.2917 23.1253 8.2917 23.5895 8.77488C24.0537 9.24196 24.0537 9.99895 23.5895 10.4821L14.3521 19.7625C13.667 20.4503 13.539 21.5213 14.0432 22.3524L18.9636 30.486C19.5398 31.4524 20.5322 32 21.6207 32C21.7487 32 21.8928 32 22.0208 31.9839C23.2694 31.8228 24.2618 30.9692 24.6299 29.7612L32.265 4.03967C32.6012 2.94445 32.2971 1.75259 31.4967 0.931172Z" fill="#BD00FF"/>
</svg>
