<svg width="28" height="32" viewBox="0 0 28 32" fill="none" xmlns="http://www.w3.org/2000/svg">
<path fill-rule="evenodd" clip-rule="evenodd" d="M13.1649 31.8619C13.3421 31.9544 13.5402 32.0015 13.7384 31.9999C13.9365 31.9984 14.133 31.9497 14.3118 31.8556L20.0204 28.8039C21.6392 27.941 22.9069 26.9761 23.8959 25.8527C26.0463 23.4051 27.2206 20.2813 27.1997 17.0602L27.132 6.43517C27.1256 5.21138 26.3218 4.11938 25.133 3.72243L14.5131 0.159303C13.8737 -0.0572149 13.173 -0.052508 12.5448 0.170286L1.9652 3.8605C0.782876 4.27314 -0.00640483 5.37298 3.91657e-05 6.59834L0.0676912 17.2155C0.0886312 20.4413 1.30316 23.551 3.48899 25.9735C4.48768 27.0812 5.76664 28.032 7.40319 28.8808L13.1649 31.8619ZM11.6537 19.3743C11.8921 19.6034 12.2014 19.7163 12.5106 19.7132C12.8199 19.7116 13.1276 19.5955 13.3627 19.3633L19.6013 13.213C20.07 12.7501 20.0652 12.0064 19.5916 11.5498C19.1164 11.0933 18.3513 11.0964 17.8826 11.5593L12.4929 16.8718L10.2861 14.7505C9.81104 14.294 9.04749 14.2987 8.57714 14.7615C8.10841 15.2244 8.11324 15.9681 8.58842 16.4246L11.6537 19.3743Z" fill="#BD00FF"/>
</svg>
