<svg width="33" height="32" viewBox="0 0 33 32" fill="none" xmlns="http://www.w3.org/2000/svg">
<path d="M25.4697 19.7122C25.0553 20.1138 24.8649 20.6946 24.9593 21.2642L26.3817 29.1362C26.5017 29.8034 26.2201 30.4786 25.6617 30.8642C25.1145 31.2642 24.3865 31.3122 23.7897 30.9922L16.7033 27.2962C16.4569 27.165 16.1833 27.0946 15.9033 27.0866H15.4697C15.3193 27.109 15.1721 27.157 15.0377 27.2306L7.94971 30.9442C7.59931 31.1202 7.20251 31.1826 6.81371 31.1202C5.86651 30.941 5.23451 30.0386 5.38971 29.0866L6.81371 21.2146C6.90811 20.6402 6.71771 20.0562 6.30331 19.6482L0.525713 14.0482C0.042513 13.5794 -0.125487 12.8754 0.095313 12.2402C0.309713 11.6066 0.856913 11.1442 1.51771 11.0402L9.46971 9.88663C10.0745 9.82423 10.6057 9.45623 10.8777 8.91223L14.3817 1.72823C14.4649 1.56823 14.5721 1.42103 14.7017 1.29623L14.8457 1.18423C14.9209 1.10103 15.0073 1.03223 15.1033 0.976232L15.2777 0.912232L15.5497 0.800232H16.2233C16.8249 0.862632 17.3545 1.22263 17.6313 1.76023L21.1817 8.91223C21.4377 9.43543 21.9353 9.79863 22.5097 9.88663L30.4617 11.0402C31.1337 11.1362 31.6953 11.6002 31.9177 12.2402C32.1273 12.8818 31.9465 13.5858 31.4537 14.0482L25.4697 19.7122Z" fill="#CD36E6"/>
</svg>
